<?xml version="1.0" standalone="no"?>
<!DOCTYPE svg PUBLIC "-//W3C//DTD SVG 20010904//EN"
 "http://www.w3.org/TR/2001/REC-SVG-20010904/DTD/svg10.dtd">
<svg version="1.0" xmlns="http://www.w3.org/2000/svg"
 width="400.000000pt" height="400.000000pt" viewBox="0 0 400.000000 400.000000"
 preserveAspectRatio="xMidYMid meet">

<g transform="translate(0.000000,400.000000) scale(0.100000,-0.100000)"
fill="#000000" stroke="none">
<path d="M1760 3754 c-784 -114 -1397 -738 -1495 -1524 -126 -997 618 -1899
1622 -1968 667 -46 1296 286 1638 864 178 300 264 674 235 1016 -37 439 -202
799 -505 1104 -297 298 -626 460 -1044 513 -112 15 -333 12 -451 -5z m402 -34
c296 -30 548 -119 789 -279 384 -254 647 -645 740 -1101 20 -99 23 -145 24
-325 0 -207 -4 -241 -42 -405 -52 -223 -180 -484 -326 -665 -73 -91 -251 -259
-347 -327 -383 -272 -876 -376 -1336 -283 -162 33 -373 114 -519 200 -201 118
-431 334 -558 525 -126 190 -213 398 -257 615 -36 179 -44 331 -26 500 59 552
350 1016 821 1305 300 185 690 275 1037 240z"/>
<path d="M1814 3545 c-350 -45 -640 -190 -894 -444 -219 -219 -343 -440 -413
-731 -68 -281 -56 -550 37 -834 80 -243 201 -435 400 -631 128 -127 220 -195
239 -176 9 9 8 17 -3 34 -115 180 -130 332 -48 478 l22 39 59 -57 c151 -150
176 -252 86 -350 -48 -53 -52 -91 -11 -123 15 -12 36 -40 47 -63 23 -48 71
-84 124 -93 20 -4 46 -16 59 -27 31 -29 149 -36 442 -30 210 5 475 -6 578 -24
29 -5 32 -3 32 20 0 14 -4 28 -9 31 -5 3 -22 40 -37 83 -31 85 -37 201 -15
281 l12 42 98 0 c148 0 274 50 323 127 21 34 23 48 20 136 l-2 98 37 34 c34
31 37 37 26 55 -10 15 -10 25 -2 44 9 19 8 34 -6 68 -9 25 -15 60 -13 78 3 28
9 35 48 51 25 10 38 18 30 18 -23 0 -82 -32 -94 -51 -7 -12 -7 -29 1 -58 10
-40 10 -42 -16 -51 -14 -6 -42 -26 -62 -45 -20 -19 -49 -39 -65 -44 -29 -10
-29 -10 5 -5 19 3 50 20 72 40 23 20 50 35 64 35 31 0 33 -23 4 -44 l-21 -14
21 -11 c51 -28 -3 -74 -59 -51 -17 7 -33 10 -36 7 -3 -3 11 -10 30 -17 20 -6
36 -13 36 -15 0 -1 -7 -18 -15 -38 -10 -24 -13 -55 -9 -99 4 -49 1 -71 -13
-98 -45 -87 -209 -142 -357 -119 -166 26 -316 113 -504 293 -73 71 -82 83 -80
112 2 39 -7 54 -17 25 -7 -24 -51 -38 -74 -24 -32 20 -150 207 -160 254 -31
144 63 259 169 204 34 -18 66 -67 75 -117 10 -54 34 -72 88 -64 35 5 46 4 50
-9 4 -8 21 -24 39 -35 77 -47 140 -7 165 105 9 43 24 80 38 95 32 34 65 108
65 148 0 18 -10 56 -22 84 -26 61 -18 98 26 109 43 12 91 49 117 91 15 24 31
38 44 38 50 0 102 24 142 65 29 31 47 42 61 38 16 -4 58 11 125 45 9 4 63
-111 83 -178 8 -25 14 -63 14 -85 0 -38 45 -153 140 -363 38 -82 36 -91 -21
-131 -28 -19 -30 -22 -9 -16 91 28 93 68 15 240 -71 158 -99 235 -105 295 -4
41 -20 96 -43 149 -36 81 -36 84 -20 112 14 23 15 34 6 63 -9 28 -8 38 3 47
24 20 15 47 -27 86 -23 21 -55 55 -70 77 l-29 38 20 26 c27 33 25 74 -3 100
-29 27 -42 27 -92 2 -70 -36 -101 -21 -65 30 33 46 24 65 -30 65 -25 0 -62 -4
-84 -8 -35 -8 -38 -7 -31 10 4 10 9 37 10 60 3 55 28 92 124 188 45 44 81 82
81 86 0 3 -44 27 -98 52 -283 133 -570 180 -868 142z m476 -58 c143 -31 284
-78 383 -128 l38 -20 -82 -92 c-45 -51 -85 -95 -88 -99 -4 -4 -51 8 -106 28
-168 60 -219 68 -430 68 -174 0 -199 -2 -290 -26 -543 -144 -914 -592 -941
-1138 -16 -309 66 -578 250 -820 42 -54 42 -56 30 -95 -20 -65 -17 -187 6
-256 12 -34 19 -63 17 -65 -7 -8 -183 170 -239 241 -149 189 -258 423 -305
656 -24 119 -24 430 1 553 60 299 198 557 416 776 238 240 522 381 875 434 61
9 401 -4 465 -17z m-26 -308 c87 -18 236 -68 236 -79 0 -3 -15 -15 -33 -26
-22 -15 -39 -19 -49 -13 -39 22 -199 60 -298 70 -386 40 -774 -130 -1012 -446
-281 -373 -298 -903 -41 -1283 35 -51 63 -96 63 -99 0 -2 -9 -16 -19 -29 l-19
-24 -34 42 c-106 133 -182 296 -219 476 -30 148 -28 372 6 511 51 210 137 374
278 534 188 212 473 358 757 387 105 11 279 2 384 -21z m-39 -120 c44 -11 99
-27 122 -35 l42 -16 -23 -37 c-12 -20 -26 -45 -31 -56 -8 -17 -10 -14 -13 18
-2 20 -8 37 -15 37 -39 0 -139 -105 -171 -181 l-15 -34 -7 33 c-4 18 -13 32
-21 32 -26 0 -118 -104 -133 -149 -12 -37 -15 -40 -22 -22 -9 26 -13 26 -54 0
-41 -25 -92 -96 -110 -153 -11 -36 -14 -38 -20 -18 -3 12 -9 22 -11 22 -3 0
-23 -14 -44 -31 -46 -36 -85 -99 -94 -152 -7 -36 -8 -37 -22 -18 -19 28 -27
27 -62 -11 -43 -46 -74 -115 -79 -175 l-4 -53 -21 28 c-11 15 -22 29 -24 31
-7 10 -54 -45 -74 -87 -17 -37 -20 -60 -17 -114 l4 -68 -24 30 c-13 16 -30 30
-37 30 -32 0 -85 -129 -85 -209 0 -44 0 -44 -21 -25 -20 18 -21 18 -32 -1 -7
-11 -22 -45 -33 -75 l-22 -55 -26 59 c-70 159 -90 256 -91 446 0 161 7 208 51
332 94 268 310 495 581 613 205 89 456 113 658 64z m325 16 c0 -54 -73 -148
-162 -207 -50 -34 -62 -35 -52 -5 23 76 79 149 151 196 52 35 63 38 63 16z
m140 -91 c0 -16 -46 -68 -79 -88 -66 -42 -181 -71 -181 -47 0 24 107 112 155
129 33 11 105 16 105 6z m-392 -110 c-4 -64 -5 -67 -54 -112 -27 -26 -59 -60
-71 -77 l-22 -30 -2 25 c-5 92 14 143 78 211 64 69 76 66 71 -17z m556 4 c8
-13 5 -24 -13 -49 -23 -32 -24 -33 -6 -65 10 -18 42 -56 71 -84 30 -29 54 -56
54 -61 0 -16 -45 -37 -127 -58 -105 -27 -187 -58 -288 -108 -179 -90 -272
-188 -484 -505 -39 -59 -76 -110 -82 -114 -6 -3 -25 7 -41 23 l-30 30 29 49
c170 294 543 715 815 919 63 47 83 52 102 23z m-196 -14 c22 -15 20 -17 -120
-152 -217 -210 -417 -451 -596 -718 -60 -91 -61 -91 -109 -97 -40 -4 -54 -12
-84 -46 -42 -47 -61 -118 -48 -184 13 -69 11 -81 -26 -122 -50 -54 -38 -67 16
-18 38 36 46 39 58 26 11 -12 11 -19 1 -36 -12 -23 -130 -118 -193 -156 -21
-13 -36 -25 -34 -27 16 -16 199 84 236 129 36 44 63 -4 67 -118 1 -44 12 -129
24 -188 30 -151 25 -162 -77 -171 -42 -3 -108 -6 -147 -7 -76 -1 -137 -17
-144 -39 -4 -10 1 -11 19 -5 13 4 99 10 190 14 111 4 171 10 181 19 31 26 30
72 -7 291 -16 98 -14 134 7 113 7 -7 20 -12 30 -12 11 0 18 -7 18 -18 0 -10
16 -74 36 -142 46 -158 52 -276 16 -313 -25 -24 -16 -24 -353 -19 -86 2 -175
0 -199 -4 l-43 -7 7 39 c20 124 19 142 -8 197 -14 30 -55 88 -90 129 l-65 76
37 7 c98 18 176 75 208 151 19 46 18 54 -12 54 -26 0 -25 2 19 40 25 22 57 64
72 93 l26 52 -25 9 c-24 9 -24 10 20 38 45 28 104 108 104 140 0 11 -7 18 -20
18 -31 0 -23 13 25 42 43 26 86 81 100 126 5 19 2 25 -15 29 -19 5 -16 8 21
21 58 19 125 74 150 123 l20 39 -23 9 c-21 8 -20 9 17 20 56 15 115 55 149
102 15 22 27 41 25 43 -2 1 -15 7 -29 13 l-25 12 30 1 c36 1 131 38 174 69 17
12 38 36 47 53 14 28 14 31 -3 44 -17 13 -17 13 2 14 60 1 176 88 206 154 6
13 32 32 57 44 59 25 54 25 80 6z m-184 -63 c11 -17 -64 -88 -115 -110 -55
-24 -159 -40 -159 -24 0 9 66 75 103 103 37 27 160 50 171 31z m-380 -33 c20
-75 -3 -130 -85 -211 l-49 -48 0 58 c0 70 27 133 78 186 42 43 48 45 56 15z
m193 -141 c19 -20 -67 -92 -137 -115 -46 -15 -150 -20 -150 -8 0 22 108 114
146 124 39 11 129 10 141 -1z m-369 -43 c6 -64 -14 -109 -74 -168 -65 -64 -73
-58 -55 43 13 72 38 119 78 151 35 27 47 21 51 -26z m1012 -61 c-1 -28 -73
-73 -117 -73 -28 0 -33 4 -33 24 0 19 8 26 53 38 59 18 97 22 97 11z m-195
-43 c8 -13 -17 -59 -49 -92 -25 -25 -87 -45 -105 -34 -8 5 1 82 11 92 7 7 111
43 125 44 6 0 15 -4 18 -10z m-995 -99 c0 -35 -7 -69 -22 -97 -23 -47 -74
-102 -84 -91 -13 13 -16 94 -4 136 14 51 89 139 102 119 4 -7 8 -37 8 -67z
m329 59 c24 -13 -53 -86 -115 -110 -56 -20 -154 -28 -154 -11 0 22 97 113 135
126 39 13 105 11 134 -5z m461 -77 c-1 -40 -34 -109 -62 -127 -13 -9 -38 -19
-56 -22 -18 -4 -34 -14 -37 -25 -15 -45 -94 -61 -109 -23 -7 17 116 144 184
191 58 40 80 42 80 6z m-962 -100 c33 -64 13 -156 -47 -224 l-38 -43 -13 38
c-19 59 -7 138 30 197 34 51 53 61 68 32z m332 -6 c0 -28 -57 -88 -107 -113
-57 -28 -173 -45 -173 -25 0 21 116 127 150 138 52 16 130 16 130 0z m358
-159 c7 -7 12 -32 12 -57 0 -41 -5 -51 -49 -96 -52 -53 -73 -95 -48 -95 7 0
19 11 26 24 7 13 35 40 62 61 49 37 49 37 49 96 0 52 2 59 20 59 44 0 66 -110
34 -171 -8 -17 -30 -47 -48 -67 -28 -31 -34 -47 -39 -102 -4 -50 -10 -69 -27
-82 -31 -25 -55 -22 -92 11 -33 29 -33 30 -39 148 -8 132 -5 140 63 231 42 53
55 61 76 40z m-832 -80 c28 -54 5 -154 -45 -202 -33 -31 -35 -29 -55 48 -18
68 -8 141 25 187 21 29 22 30 41 12 11 -10 26 -30 34 -45z m314 44 c0 -30 -52
-89 -103 -117 -47 -26 -167 -48 -167 -30 0 17 74 106 104 124 35 22 92 38 139
40 20 1 27 -4 27 -17z m-110 -195 c0 -24 -58 -96 -92 -113 -18 -10 -66 -23
-105 -29 -67 -10 -73 -10 -73 6 0 29 87 116 133 132 55 20 137 22 137 4z m454
-51 c-1 -57 -21 -96 -49 -96 -21 0 -38 28 -32 52 9 34 60 109 72 105 5 -2 9
-30 9 -61z m-805 11 c43 -70 35 -164 -18 -228 l-28 -32 -24 49 c-30 61 -30
130 1 201 25 58 38 60 69 10z m243 -161 c-5 -30 -49 -94 -78 -112 -32 -21
-129 -54 -161 -54 -31 0 -31 30 2 85 29 51 58 71 127 90 72 19 114 16 110 -9z
m-322 -116 c18 -64 6 -138 -29 -181 -16 -21 -21 -22 -36 -9 -49 41 -70 152
-44 231 21 60 28 63 66 27 18 -17 38 -48 43 -68z m240 -73 c0 -28 -64 -108
-100 -127 -42 -22 -111 -35 -134 -27 -12 5 -9 17 16 67 17 33 40 66 52 72 51
28 166 38 166 15z m578 -179 c44 -49 199 -180 254 -214 57 -36 168 -90 201
-98 32 -8 32 -7 7 -98 -27 -97 -26 -170 4 -258 20 -58 22 -72 11 -77 -8 -2
-18 -2 -24 1 -28 18 -216 26 -375 16 -93 -6 -171 -8 -173 -6 -3 2 -1 25 2 50
6 39 11 46 35 51 16 3 40 18 54 32 31 31 35 96 10 145 -12 24 -14 36 -5 55 20
43 12 143 -19 263 -17 63 -34 133 -37 154 -7 46 1 44 55 -16z m-672 -464 c-3
-9 -6 -27 -6 -41 0 -20 -4 -24 -22 -21 -44 6 -31 78 14 78 14 0 18 -5 14 -16z
m413 -3 c18 -5 27 -18 36 -56 13 -47 31 -70 85 -106 25 -16 25 -17 7 -53 -27
-57 -102 -81 -175 -55 -22 8 -35 23 -51 59 -32 74 -25 188 12 212 14 9 52 9
86 -1z m-164 -78 c-5 -59 -3 -89 9 -123 9 -25 16 -48 16 -51 0 -16 -41 -15
-68 1 -33 21 -52 77 -52 160 0 73 12 90 61 90 l41 0 -7 -77z m406 44 c8 -31
-4 -77 -24 -89 -17 -11 -65 -10 -88 2 -22 12 -49 61 -49 89 0 18 8 21 63 24
89 5 90 5 98 -26z m-536 -72 c0 -52 -4 -95 -8 -95 -4 0 -23 6 -42 14 -27 11
-36 23 -45 55 -20 73 6 121 64 121 l31 0 0 -95z"/>
<path d="M2030 3446 c0 -12 -3 -51 -6 -85 -6 -52 -5 -61 10 -61 11 0 16 9 16
33 0 17 3 56 6 85 6 44 4 52 -10 52 -10 0 -16 -8 -16 -24z"/>
<path d="M1770 3433 c1 -27 27 -143 34 -150 16 -16 17 13 5 87 -8 53 -17 80
-26 80 -7 0 -13 -8 -13 -17z"/>
<path d="M2291 3398 c-33 -78 -45 -117 -38 -125 4 -3 11 -2 16 3 12 12 61 134
61 151 0 27 -21 11 -39 -29z"/>
<path d="M1516 3381 c-7 -11 56 -145 73 -155 22 -14 17 14 -15 79 -39 78 -49
91 -58 76z"/>
<path d="M2485 3301 c-59 -73 -63 -81 -41 -81 15 0 116 122 116 140 0 23 -22
6 -75 -59z"/>
<path d="M1260 3263 c1 -19 117 -136 128 -129 8 5 -7 29 -45 72 -50 56 -84 80
-83 57z"/>
<path d="M1040 3101 c0 -18 143 -112 154 -101 5 5 8 11 5 13 -2 2 -34 25 -70
50 -65 46 -89 56 -89 38z"/>
<path d="M850 2896 c0 -20 159 -81 173 -67 7 7 3 13 -14 19 -13 6 -53 21 -88
36 -76 31 -71 30 -71 12z"/>
<path d="M700 2652 c0 -10 104 -32 153 -32 34 0 43 16 14 24 -47 13 -167 19
-167 8z"/>
<path d="M745 2415 c-5 -2 -40 -6 -77 -10 -47 -5 -68 -11 -68 -20 0 -23 180
-1 188 23 3 11 -20 15 -43 7z"/>
<path d="M637 2151 c-85 -31 -92 -35 -83 -49 7 -12 178 49 184 66 5 18 -13 14
-101 -17z"/>
<path d="M640 1890 c-68 -45 -89 -67 -67 -72 16 -2 157 94 157 108 0 21 -8 18
-90 -36z"/>
<path d="M693 1631 c-59 -65 -75 -91 -54 -91 14 0 131 129 131 145 0 26 -13
16 -77 -54z"/>
<path d="M823 1428 c-54 -93 -75 -140 -65 -150 7 -7 14 -3 23 13 6 13 27 53
47 87 22 42 31 67 24 74 -6 6 -16 -2 -29 -24z"/>
<path d="M957 1263 c-2 -4 -14 -50 -26 -102 -16 -65 -19 -97 -12 -104 14 -14
14 -15 40 96 16 66 20 102 13 109 -5 5 -12 6 -15 1z"/>
<path d="M2770 2247 c-27 -14 -83 -52 -139 -92 -58 -43 -17 -27 50 18 35 24
83 51 106 60 40 15 42 15 67 -4 28 -22 34 -15 12 14 -16 20 -61 22 -96 4z"/>
<path d="M2840 2160 c0 -5 -19 -14 -42 -21 -24 -6 -64 -26 -90 -44 -25 -19
-65 -43 -88 -55 -23 -12 -40 -23 -38 -25 7 -7 220 -26 236 -20 14 4 18 18 20
67 2 42 7 65 17 71 8 4 12 14 9 22 -7 17 -24 20 -24 5z m-25 -96 l0 -39 -72 0
c-41 0 -74 4 -74 10 -2 12 120 77 135 72 6 -2 11 -21 11 -43z"/>
<path d="M1805 1806 c-26 -26 -41 -96 -30 -145 8 -38 41 -80 72 -92 13 -5 29
-22 35 -39 8 -23 16 -30 31 -28 11 2 22 9 25 17 3 9 -2 11 -17 6 -16 -5 -23
-1 -31 19 -5 14 -23 32 -40 41 -42 22 -64 75 -56 139 6 52 28 86 57 86 27 0
32 -17 33 -94 1 -62 3 -71 21 -75 19 -3 19 -2 4 15 -11 13 -14 27 -8 44 15 53
10 98 -13 114 -31 22 -55 20 -83 -8z"/>
<path d="M2896 1759 c-7 -59 2 -89 26 -89 15 0 159 72 154 77 -2 3 -38 -11
-80 -30 -92 -43 -104 -37 -89 43 6 28 7 53 3 55 -4 3 -11 -23 -14 -56z"/>
</g>
</svg>
